<mxfile host="app.diagrams.net" agent="Mozilla/5.0 (Windows NT 10.0; Win64; x64) AppleWebKit/537.36 (KHTML, like Gecko) Chrome/137.0.0.0 Safari/537.36" version="27.1.5">
  <diagram name="PÃ¡gina-1" id="Ia8JghY3htvZy3D03qZV">
    <mxGraphModel grid="1" page="1" gridSize="10" guides="1" tooltips="1" connect="1" arrows="1" fold="1" pageScale="1" pageWidth="827" pageHeight="1169" math="0" shadow="0">
      <root>
        <mxCell id="0" />
        <mxCell id="1" parent="0" />
        <mxCell id="cG_V4w4JAWT_PHDGX1kz-1" value="" style="endArrow=none;html=1;rounded=0;" edge="1" parent="1">
          <mxGeometry width="50" height="50" relative="1" as="geometry">
            <mxPoint y="160" as="sourcePoint" />
            <mxPoint x="260" y="160" as="targetPoint" />
          </mxGeometry>
        </mxCell>
        <mxCell id="cG_V4w4JAWT_PHDGX1kz-2" value=": Controller" style="rounded=0;whiteSpace=wrap;html=1;" vertex="1" parent="1">
          <mxGeometry x="250" y="130" width="100" height="50" as="geometry" />
        </mxCell>
        <mxCell id="cG_V4w4JAWT_PHDGX1kz-3" value="" style="rounded=0;whiteSpace=wrap;html=1;" vertex="1" parent="1">
          <mxGeometry x="530" y="140" width="100" height="50" as="geometry" />
        </mxCell>
        <mxCell id="cG_V4w4JAWT_PHDGX1kz-4" value=": Promocion" style="rounded=0;whiteSpace=wrap;html=1;" vertex="1" parent="1">
          <mxGeometry x="520" y="130" width="100" height="50" as="geometry" />
        </mxCell>
        <mxCell id="cG_V4w4JAWT_PHDGX1kz-5" value="p:Promocion" style="rounded=0;whiteSpace=wrap;html=1;" vertex="1" parent="1">
          <mxGeometry x="690" y="310" width="100" height="50" as="geometry" />
        </mxCell>
        <mxCell id="cG_V4w4JAWT_PHDGX1kz-6" value="" style="endArrow=none;html=1;rounded=0;entryX=1;entryY=0.5;entryDx=0;entryDy=0;exitX=0;exitY=0.5;exitDx=0;exitDy=0;" edge="1" parent="1" source="cG_V4w4JAWT_PHDGX1kz-4" target="cG_V4w4JAWT_PHDGX1kz-2">
          <mxGeometry width="50" height="50" relative="1" as="geometry">
            <mxPoint x="90" y="210" as="sourcePoint" />
            <mxPoint x="140" y="160" as="targetPoint" />
          </mxGeometry>
        </mxCell>
        <mxCell id="cG_V4w4JAWT_PHDGX1kz-7" value="" style="endArrow=none;html=1;rounded=0;entryX=0.108;entryY=0.99;entryDx=0;entryDy=0;edgeStyle=orthogonalEdgeStyle;entryPerimeter=0;exitX=0.6;exitY=0;exitDx=0;exitDy=0;exitPerimeter=0;" edge="1" parent="1" source="cG_V4w4JAWT_PHDGX1kz-5" target="cG_V4w4JAWT_PHDGX1kz-2">
          <mxGeometry width="50" height="50" relative="1" as="geometry">
            <mxPoint x="750" y="285" as="sourcePoint" />
            <mxPoint x="300" y="155" as="targetPoint" />
            <Array as="points">
              <mxPoint x="750" y="220" />
              <mxPoint x="261" y="220" />
            </Array>
          </mxGeometry>
        </mxCell>
        <mxCell id="cG_V4w4JAWT_PHDGX1kz-8" value="&lt;font style=&quot;font-size: 14px;&quot;&gt;1 *[foreach] p=next()&lt;/font&gt;" style="text;html=1;align=center;verticalAlign=middle;resizable=0;points=[];autosize=1;strokeColor=none;fillColor=none;" vertex="1" parent="1">
          <mxGeometry x="360" y="130" width="150" height="30" as="geometry" />
        </mxCell>
        <mxCell id="cG_V4w4JAWT_PHDGX1kz-9" value="&lt;font style=&quot;font-size: 14px;&quot;&gt;listarPromociones():set(DTPromocion)&lt;/font&gt;" style="text;html=1;align=center;verticalAlign=middle;resizable=0;points=[];autosize=1;strokeColor=none;fillColor=none;" vertex="1" parent="1">
          <mxGeometry y="130" width="260" height="30" as="geometry" />
        </mxCell>
        <mxCell id="cG_V4w4JAWT_PHDGX1kz-10" value="&lt;font style=&quot;font-size: 14px;&quot;&gt;2 *[p.fecVencimiento &amp;gt; fecha actual] retornarDTPromocion():DTPromocion&lt;/font&gt;" style="text;html=1;align=center;verticalAlign=middle;resizable=0;points=[];autosize=1;strokeColor=none;fillColor=none;" vertex="1" parent="1">
          <mxGeometry x="255" y="220" width="480" height="30" as="geometry" />
        </mxCell>
        <mxCell id="cG_V4w4JAWT_PHDGX1kz-11" value="" style="endArrow=none;dashed=1;html=1;dashPattern=1 3;strokeWidth=2;rounded=0;entryX=0;entryY=1;entryDx=0;entryDy=0;exitX=0;exitY=0;exitDx=0;exitDy=0;exitPerimeter=0;" edge="1" parent="1" target="cG_V4w4JAWT_PHDGX1kz-2">
          <mxGeometry width="50" height="50" relative="1" as="geometry">
            <mxPoint x="155" y="220" as="sourcePoint" />
            <mxPoint x="140" y="240" as="targetPoint" />
          </mxGeometry>
        </mxCell>
        <mxCell id="cG_V4w4JAWT_PHDGX1kz-22" value="" style="endArrow=none;html=1;rounded=0;" edge="1" parent="1">
          <mxGeometry width="50" height="50" relative="1" as="geometry">
            <mxPoint y="450" as="sourcePoint" />
            <mxPoint x="240" y="450" as="targetPoint" />
          </mxGeometry>
        </mxCell>
        <mxCell id="cG_V4w4JAWT_PHDGX1kz-23" value=": Controller" style="rounded=0;whiteSpace=wrap;html=1;" vertex="1" parent="1">
          <mxGeometry x="240" y="420" width="100" height="50" as="geometry" />
        </mxCell>
        <mxCell id="cG_V4w4JAWT_PHDGX1kz-24" value="" style="rounded=0;whiteSpace=wrap;html=1;" vertex="1" parent="1">
          <mxGeometry x="490" y="430" width="100" height="50" as="geometry" />
        </mxCell>
        <mxCell id="cG_V4w4JAWT_PHDGX1kz-25" value=": Promocion" style="rounded=0;whiteSpace=wrap;html=1;" vertex="1" parent="1">
          <mxGeometry x="480" y="420" width="100" height="50" as="geometry" />
        </mxCell>
        <mxCell id="cG_V4w4JAWT_PHDGX1kz-26" value="p:Promocion" style="rounded=0;whiteSpace=wrap;html=1;" vertex="1" parent="1">
          <mxGeometry x="560" y="520" width="100" height="50" as="geometry" />
        </mxCell>
        <mxCell id="cG_V4w4JAWT_PHDGX1kz-27" value="" style="endArrow=none;html=1;rounded=0;entryX=1;entryY=0.5;entryDx=0;entryDy=0;exitX=0;exitY=0.5;exitDx=0;exitDy=0;" edge="1" parent="1" source="cG_V4w4JAWT_PHDGX1kz-25" target="cG_V4w4JAWT_PHDGX1kz-23">
          <mxGeometry width="50" height="50" relative="1" as="geometry">
            <mxPoint x="70" y="500" as="sourcePoint" />
            <mxPoint x="120" y="450" as="targetPoint" />
          </mxGeometry>
        </mxCell>
        <mxCell id="cG_V4w4JAWT_PHDGX1kz-28" value="" style="endArrow=none;html=1;rounded=0;exitX=0;exitY=0.5;exitDx=0;exitDy=0;edgeStyle=orthogonalEdgeStyle;" edge="1" parent="1" source="cG_V4w4JAWT_PHDGX1kz-26">
          <mxGeometry width="50" height="50" relative="1" as="geometry">
            <mxPoint x="70" y="500" as="sourcePoint" />
            <mxPoint x="290" y="470" as="targetPoint" />
            <Array as="points">
              <mxPoint x="250" y="545" />
              <mxPoint x="250" y="470" />
            </Array>
          </mxGeometry>
        </mxCell>
        <mxCell id="cG_V4w4JAWT_PHDGX1kz-30" value="&lt;font style=&quot;font-size: 14px;&quot;&gt;selectPromo(nombre):DTProdProm&lt;/font&gt;" style="text;html=1;align=center;verticalAlign=middle;resizable=0;points=[];autosize=1;strokeColor=none;fillColor=none;" vertex="1" parent="1">
          <mxGeometry y="420" width="240" height="30" as="geometry" />
        </mxCell>
        <mxCell id="cG_V4w4JAWT_PHDGX1kz-31" value="&lt;font style=&quot;font-size: 14px;&quot;&gt;2 retornarDTProdPromocion():set(DTProdProm)&lt;/font&gt;" style="text;html=1;align=center;verticalAlign=middle;resizable=0;points=[];autosize=1;strokeColor=none;fillColor=none;" vertex="1" parent="1">
          <mxGeometry x="250" y="520" width="320" height="30" as="geometry" />
        </mxCell>
        <mxCell id="cG_V4w4JAWT_PHDGX1kz-35" value="" style="rounded=0;whiteSpace=wrap;html=1;" vertex="1" parent="1">
          <mxGeometry x="710" y="580" width="100" height="50" as="geometry" />
        </mxCell>
        <mxCell id="cG_V4w4JAWT_PHDGX1kz-36" value=": ProdPromocion" style="rounded=0;whiteSpace=wrap;html=1;" vertex="1" parent="1">
          <mxGeometry x="700" y="570" width="100" height="50" as="geometry" />
        </mxCell>
        <mxCell id="cG_V4w4JAWT_PHDGX1kz-37" value="" style="endArrow=none;html=1;rounded=0;entryX=1;entryY=0.5;entryDx=0;entryDy=0;exitX=0.925;exitY=-0.013;exitDx=0;exitDy=0;exitPerimeter=0;" edge="1" parent="1" source="cG_V4w4JAWT_PHDGX1kz-36" target="cG_V4w4JAWT_PHDGX1kz-26">
          <mxGeometry width="50" height="50" relative="1" as="geometry">
            <mxPoint x="80" y="680" as="sourcePoint" />
            <mxPoint x="130" y="630" as="targetPoint" />
            <Array as="points">
              <mxPoint x="793" y="545" />
            </Array>
          </mxGeometry>
        </mxCell>
        <mxCell id="cG_V4w4JAWT_PHDGX1kz-38" value="&lt;font style=&quot;font-size: 14px;&quot;&gt;2.1* [foreach] pp:next()&lt;/font&gt;" style="text;html=1;align=center;verticalAlign=middle;resizable=0;points=[];autosize=1;strokeColor=none;fillColor=none;" vertex="1" parent="1">
          <mxGeometry x="660" y="520" width="170" height="30" as="geometry" />
        </mxCell>
        <mxCell id="cG_V4w4JAWT_PHDGX1kz-39" value=": Vendedor" style="rounded=0;whiteSpace=wrap;html=1;" vertex="1" parent="1">
          <mxGeometry x="690" y="730" width="100" height="50" as="geometry" />
        </mxCell>
        <mxCell id="IHQS5DBpFdXJSH8KooKj-1" value="pp: ProdPromocion" style="rounded=0;whiteSpace=wrap;html=1;" vertex="1" parent="1">
          <mxGeometry x="210" y="630" width="110" height="50" as="geometry" />
        </mxCell>
        <mxCell id="IHQS5DBpFdXJSH8KooKj-3" value="&lt;span style=&quot;font-family: Helvetica; font-style: normal; font-variant-ligatures: normal; font-variant-caps: normal; font-weight: 400; letter-spacing: normal; orphans: 2; text-align: center; text-indent: 0px; text-transform: none; widows: 2; word-spacing: 0px; -webkit-text-stroke-width: 0px; white-space: nowrap; text-decoration-thickness: initial; text-decoration-style: initial; text-decoration-color: initial; float: none; display: inline !important;&quot;&gt;&lt;font style=&quot;font-size: 14px;&quot;&gt;&lt;font style=&quot;&quot;&gt;2.2 *&amp;nbsp;&lt;/font&gt;&lt;span&gt;&lt;font style=&quot;&quot;&gt;retornarDTProdPromocion&lt;/font&gt;&lt;/span&gt;&lt;font style=&quot;&quot;&gt;():DTProdPromocion&lt;/font&gt;&lt;/font&gt;&lt;/span&gt;" style="text;whiteSpace=wrap;html=1;" vertex="1" parent="1">
          <mxGeometry x="210" y="575" width="150" height="40" as="geometry" />
        </mxCell>
        <mxCell id="IHQS5DBpFdXJSH8KooKj-4" value=":Producto" style="rounded=0;whiteSpace=wrap;html=1;" vertex="1" parent="1">
          <mxGeometry x="330" y="730" width="100" height="50" as="geometry" />
        </mxCell>
        <mxCell id="IHQS5DBpFdXJSH8KooKj-5" value="&lt;span style=&quot;color: rgb(0, 0, 0); font-family: Helvetica; font-style: normal; font-variant-ligatures: normal; font-variant-caps: normal; font-weight: 400; letter-spacing: normal; orphans: 2; text-align: center; text-indent: 0px; text-transform: none; widows: 2; word-spacing: 0px; -webkit-text-stroke-width: 0px; white-space: nowrap; background-color: rgb(236, 236, 236); text-decoration-thickness: initial; text-decoration-style: initial; text-decoration-color: initial; float: none; display: inline !important;&quot;&gt;&lt;font style=&quot;font-size: 14px;&quot;&gt;2.2.1&amp;nbsp;&lt;/font&gt;&lt;/span&gt;&lt;span style=&quot;text-align: center; text-wrap-mode: nowrap;&quot;&gt;&lt;font style=&quot;font-size: 14px;&quot;&gt;retornarDTProducto: DTProducto&lt;/font&gt;&lt;/span&gt;" style="text;whiteSpace=wrap;html=1;" vertex="1" parent="1">
          <mxGeometry x="80" y="730" width="100" height="40" as="geometry" />
        </mxCell>
        <mxCell id="IHQS5DBpFdXJSH8KooKj-7" value="&lt;span style=&quot;color: rgb(0, 0, 0); font-family: Helvetica; font-style: normal; font-variant-ligatures: normal; font-variant-caps: normal; font-weight: 400; letter-spacing: normal; orphans: 2; text-align: center; text-indent: 0px; text-transform: none; widows: 2; word-spacing: 0px; -webkit-text-stroke-width: 0px; white-space: nowrap; background-color: rgb(236, 236, 236); text-decoration-thickness: initial; text-decoration-style: initial; text-decoration-color: initial; float: none; display: inline !important;&quot;&gt;&lt;font style=&quot;font-size: 14px;&quot;&gt;2.2.2 retornarDTVendedor:DTVendedor&lt;/font&gt;&lt;/span&gt;" style="text;whiteSpace=wrap;html=1;" vertex="1" parent="1">
          <mxGeometry x="430" y="730" width="130" height="40" as="geometry" />
        </mxCell>
        <mxCell id="IHQS5DBpFdXJSH8KooKj-9" value="" style="endArrow=none;html=1;rounded=0;entryX=1;entryY=0.5;entryDx=0;entryDy=0;exitX=0;exitY=0.5;exitDx=0;exitDy=0;" edge="1" parent="1" source="cG_V4w4JAWT_PHDGX1kz-39" target="IHQS5DBpFdXJSH8KooKj-4">
          <mxGeometry width="50" height="50" relative="1" as="geometry">
            <mxPoint x="-385" y="1050" as="sourcePoint" />
            <mxPoint x="-335" y="1000" as="targetPoint" />
            <Array as="points" />
          </mxGeometry>
        </mxCell>
        <mxCell id="cG_V4w4JAWT_PHDGX1kz-29" value="&lt;font style=&quot;font-size: 14px;&quot;&gt;1 p=find (nombre)&lt;/font&gt;" style="text;html=1;align=center;verticalAlign=middle;resizable=0;points=[];autosize=1;strokeColor=none;fillColor=none;" vertex="1" parent="1">
          <mxGeometry x="335" y="420" width="130" height="30" as="geometry" />
        </mxCell>
        <mxCell id="BNqidlVyBZNLLEs3VWt_-1" value="" style="endArrow=none;html=1;rounded=0;entryX=0.25;entryY=1;entryDx=0;entryDy=0;exitX=0;exitY=0.5;exitDx=0;exitDy=0;edgeStyle=orthogonalEdgeStyle;" edge="1" parent="1" source="IHQS5DBpFdXJSH8KooKj-1" target="cG_V4w4JAWT_PHDGX1kz-26">
          <mxGeometry width="50" height="50" relative="1" as="geometry">
            <mxPoint x="80" y="690" as="sourcePoint" />
            <mxPoint x="130" y="640" as="targetPoint" />
          </mxGeometry>
        </mxCell>
        <mxCell id="BNqidlVyBZNLLEs3VWt_-3" value="" style="endArrow=none;html=1;rounded=0;entryX=0;entryY=0.5;entryDx=0;entryDy=0;exitX=0.091;exitY=1;exitDx=0;exitDy=0;exitPerimeter=0;" edge="1" parent="1" source="IHQS5DBpFdXJSH8KooKj-1" target="IHQS5DBpFdXJSH8KooKj-4">
          <mxGeometry width="50" height="50" relative="1" as="geometry">
            <mxPoint x="60" y="755" as="sourcePoint" />
            <mxPoint x="-640" y="910" as="targetPoint" />
            <Array as="points">
              <mxPoint x="220" y="700" />
              <mxPoint x="70" y="700" />
              <mxPoint x="70" y="755" />
            </Array>
          </mxGeometry>
        </mxCell>
        <mxCell id="daYXZfYZmI32h5F3aAO0-13" value="" style="endArrow=classic;html=1;rounded=0;" edge="1" parent="1">
          <mxGeometry width="50" height="50" relative="1" as="geometry">
            <mxPoint x="470" y="254.7" as="sourcePoint" />
            <mxPoint x="520" y="254.7" as="targetPoint" />
          </mxGeometry>
        </mxCell>
        <mxCell id="daYXZfYZmI32h5F3aAO0-14" value="" style="endArrow=classic;html=1;rounded=0;" edge="1" parent="1">
          <mxGeometry width="50" height="50" relative="1" as="geometry">
            <mxPoint x="410" y="164.47" as="sourcePoint" />
            <mxPoint x="460" y="164.47" as="targetPoint" />
          </mxGeometry>
        </mxCell>
        <mxCell id="daYXZfYZmI32h5F3aAO0-15" value="" style="endArrow=classic;html=1;rounded=0;" edge="1" parent="1">
          <mxGeometry width="50" height="50" relative="1" as="geometry">
            <mxPoint x="380" y="460" as="sourcePoint" />
            <mxPoint x="430" y="460" as="targetPoint" />
          </mxGeometry>
        </mxCell>
        <mxCell id="daYXZfYZmI32h5F3aAO0-16" value="" style="endArrow=classic;html=1;rounded=0;" edge="1" parent="1">
          <mxGeometry width="50" height="50" relative="1" as="geometry">
            <mxPoint x="405" y="554.44" as="sourcePoint" />
            <mxPoint x="455" y="554.44" as="targetPoint" />
          </mxGeometry>
        </mxCell>
        <mxCell id="daYXZfYZmI32h5F3aAO0-17" value="" style="endArrow=classic;html=1;rounded=0;" edge="1" parent="1">
          <mxGeometry width="50" height="50" relative="1" as="geometry">
            <mxPoint x="710" y="550.0000000000001" as="sourcePoint" />
            <mxPoint x="760" y="550.0000000000001" as="targetPoint" />
          </mxGeometry>
        </mxCell>
        <mxCell id="daYXZfYZmI32h5F3aAO0-18" value="" style="endArrow=classic;html=1;rounded=0;" edge="1" parent="1">
          <mxGeometry width="50" height="50" relative="1" as="geometry">
            <mxPoint x="414" y="615" as="sourcePoint" />
            <mxPoint x="354" y="615.33" as="targetPoint" />
          </mxGeometry>
        </mxCell>
        <mxCell id="daYXZfYZmI32h5F3aAO0-19" value="" style="endArrow=classic;html=1;rounded=0;" edge="1" parent="1">
          <mxGeometry width="50" height="50" relative="1" as="geometry">
            <mxPoint x="180" y="768.89" as="sourcePoint" />
            <mxPoint x="230" y="768.89" as="targetPoint" />
          </mxGeometry>
        </mxCell>
        <mxCell id="daYXZfYZmI32h5F3aAO0-20" value="" style="endArrow=classic;html=1;rounded=0;" edge="1" parent="1">
          <mxGeometry width="50" height="50" relative="1" as="geometry">
            <mxPoint x="500" y="768.89" as="sourcePoint" />
            <mxPoint x="550" y="768.89" as="targetPoint" />
          </mxGeometry>
        </mxCell>
        <mxCell id="daYXZfYZmI32h5F3aAO0-27" value="&lt;span style=&quot;font-size: 10px;&quot;&gt;Retorna solo las promociones vigentes&lt;/span&gt;" style="shape=note2;boundedLbl=1;whiteSpace=wrap;html=1;size=25;verticalAlign=top;align=center;" vertex="1" parent="1">
          <mxGeometry x="100" y="210" width="80" height="90" as="geometry" />
        </mxCell>
        <mxCell id="jag3J8SeEEbEUpIZPyUX-1" value="&lt;font style=&quot;font-size: 24px;&quot;&gt;&lt;b&gt;Consultar PromociÃ³n&lt;/b&gt;&lt;/font&gt;" style="text;html=1;align=center;verticalAlign=middle;resizable=0;points=[];autosize=1;strokeColor=none;fillColor=none;" vertex="1" parent="1">
          <mxGeometry x="279" y="10" width="270" height="40" as="geometry" />
        </mxCell>
      </root>
    </mxGraphModel>
  </diagram>
</mxfile>
